<svg 
  width="37px" 
  height="37px"  
  viewBox="0 0 1574.8 1574.8" 
  xmlns="http://www.corel.com/coreldraw/odm/2003"
  >
		<defs>
		  <style type="text/css">  
		    .fil0 {fill:#fff;}
		  </style>
		</defs>
		<g id="Layer_x0020_1">
		  <metadata id="CorelCorpID_0Corel-Layer"></metadata>
		  <g id="_955604368">
		    <path class="fil0" d="M452.25 595.28c152.76,-43.72 48.4,160.16 97.02,239.16 59.15,10.24 46.2,-41.62 45.93,-93.77 -0.48,-95.45 -7.44,-413.82 8.7,-464.69 45.04,-17.44 59.69,-15.6 76.96,11.32 40.25,60.8 -24.12,445.99 23.56,511.15 63.09,0.96 42.14,-83.37 42.14,-147.29l0.73 -402.66c0.38,-30.62 -3.78,-65.21 15.26,-82.37 24.73,-22.3 54.59,-12.37 69.85,4.99 35.07,73.14 -18.35,489.02 16.08,593.02 67.9,12.1 51.22,-41.19 51.02,-105.53l-0.3 -342.74c3.88,-58.3 61.57,-68.12 90.5,-25.71 22.76,48.96 -15.59,617.26 13.02,679.74 110.15,23.87 -20.46,-175.39 150.6,-217.06 0,183.1 24.3,376.93 -55.65,502.09 -64.63,101.17 -203.3,192.29 -377.67,154.56 -133.8,-28.95 -246.46,-141.14 -270.9,-281.19 -11.48,-65.76 -12.48,-489.61 3.15,-533.03zm237.11 -380.75c-222.56,-33.32 -126.56,166.97 -153.72,321.72 -134.74,-19.09 -151.25,40.38 -151.04,167.07 0.19,114.36 -0.47,228.77 -0.09,343.11 1.43,430.13 510.64,578.57 751.96,254.94 100.19,-134.36 80.65,-415.14 74.45,-612.43 -115.27,-2.7 -101.72,29.37 -161.03,54.98 0,-115.41 -0.05,-230.82 0,-346.23 0.03,-72.68 18.93,-218.65 -150,-182.63 -6.9,-69.59 -28.34,-113.24 -100.39,-116.47 -74.21,-3.33 -109.07,44.65 -110.15,115.94z"></path>
		    <path class="fil0" d="M857.1 1084.7c9.68,-41.41 10.09,-35.41 -0.38,-76.88 34.29,6.06 57.91,15.4 76.65,38.44l-7.33 7.51c-20.24,17.54 -41.88,25.76 -68.94,30.93zm-198.83 -38.44c23.18,-23.7 36.33,-31.57 76.96,-38.67 -9.43,39.74 -9.19,37.19 -0.49,76.85 -34.48,-6.27 -59.31,-16.22 -76.47,-38.18zm-79.44 1.28c134.61,170.73 373.91,108.35 435.35,-3.2 -56.34,-69.51 -94.69,-101.54 -214.43,-103.15 -119.73,-1.61 -173.46,39.37 -220.92,106.35z"></path>
		    <path class="fil0" d="M204.11 302.9l35.61 57.64 -38.38 60.22 -33.37 -60.26 36.13 -57.6zm-99.61 57.53c20.05,33.46 38.59,21.8 60.81,75.57 8.45,20.46 11.44,32.34 14.98,52.28 6.07,34.3 -1.69,31.8 22.98,46.74 37.22,-20.69 9.13,-26.53 38.75,-98.32 21.63,-52.41 42.36,-45.2 60.08,-76.28 -17.9,-35.41 -53.37,-16.65 -75.16,-128.35 -7.24,-37.09 1.11,-31.89 -23.67,-47.11 -33.52,21.68 -11.18,25.63 -36.62,93.98 -25.05,67.29 -44.57,47.56 -62.15,81.49z"></path>
		    <path class="fil0" d="M1404.42 263.51c-4.99,8.72 -1.02,6.61 -12.09,19.04l-15.94 12.51 -16.41 -32.09 21.13 -28.39c9.52,9.96 14.64,14.96 23.31,28.93zm-110.32 0c15.67,29.18 39.44,12.19 58.76,65.96 16.51,45.98 -6.67,79.22 37.63,89.83 16.76,-20.47 10.92,-55.62 24.06,-92.32 23.72,-66.31 35.73,-21.73 55.76,-63.47 -19.15,-40.36 -35.09,0.09 -56.92,-62.37 -13.7,-39.21 -3.54,-68.67 -24.07,-93.01 -57.7,12.25 -3.06,76.33 -61.44,124.56 -27.99,23.11 -23.34,1.17 -33.78,30.83z"></path>
		  </g>
		</g>
</svg>